<?xml version="1.0" encoding="utf-8"?>
<!-- Generator: Adobe Illustrator 27.0.0, SVG Export Plug-In . SVG Version: 6.00 Build 0)  -->
<svg version="1.1" xmlns="http://www.w3.org/2000/svg" xmlns:xlink="http://www.w3.org/1999/xlink" x="0px" y="0px"
	viewBox="0 0 24 24" style="enable-background:new 0 0 24 24;" xml:space="preserve">
	<g>
		<g>
			<g>
				<path fill="currentColor" d="M9.68,11.18c2.34,0,4.24-1.9,4.24-4.24c0-2.34-1.9-4.24-4.24-4.24c-2.34,0-4.24,1.9-4.24,4.24
				C5.44,9.28,7.34,11.18,9.68,11.18z M14.36,12.5c-0.15-0.02-0.3-0.03-0.45-0.03H12.4c-0.34,0-0.65,0.16-0.84,0.44l-1.06,1.51
				C10.09,15.01,9.21,15,8.8,14.4l-1.01-1.49c-0.19-0.28-0.51-0.45-0.85-0.45H5.46C3.55,12.46,2,14.01,2,15.92v1.53
				c0,0.28,0.23,0.51,0.51,0.51h9.99l1.85-2.69V12.5z M6.64,16.55H4.58c-0.36,0-0.64-0.29-0.64-0.64c0-0.36,0.29-0.64,0.64-0.64
				h2.06c0.36,0,0.64,0.29,0.64,0.64C7.28,16.26,6.99,16.55,6.64,16.55z M21.78,19.36L19.46,16c-0.14-0.21-0.22-0.45-0.22-0.7v-3.61
				c0-0.09-0.07-0.16-0.16-0.16H15.8c-0.09,0-0.16,0.07-0.16,0.16v3.61c0,0.25-0.08,0.5-0.22,0.7l-2.32,3.36
				c-0.57,0.82,0.02,1.94,1.02,1.94h6.63C21.76,21.31,22.35,20.19,21.78,19.36z" />
				<path fill="currentColor" d="M18.99,8.96H15.9c-0.43,0-0.77,0.35-0.77,0.77c0,0.43,0.35,0.77,0.77,0.77h3.09c0.43,0,0.77-0.35,0.77-0.77
				C19.76,9.3,19.41,8.96,18.99,8.96z" />
			</g>
		</g>
	</g>
</svg>