<?xml version="1.0" encoding="utf-8"?>
<!-- Generator: Adobe Illustrator 27.0.0, SVG Export Plug-In . SVG Version: 6.00 Build 0)  -->
<svg version="1.1" xmlns="http://www.w3.org/2000/svg" xmlns:xlink="http://www.w3.org/1999/xlink" x="0px" y="0px"
	viewBox="0 0 24 24" style="enable-background:new 0 0 24 24;" xml:space="preserve">
	<g>
		<g>
			<path fill="currentColor" d="M12.17,5.54c0.72,0.49,1.7,0.3,2.19-0.42c0.49-0.72,0.3-1.7-0.42-2.19c-0.72-0.49-1.7-0.3-2.19,0.42
			C11.26,4.07,11.45,5.06,12.17,5.54z M8.47,9.13c0.23-0.33,0.5-0.62,0.81-0.86L8.01,7.21c0.58-1.06,0.28-2.4-0.74-3.09
			C6.19,3.38,4.72,3.67,3.99,4.75C3.25,5.83,3.54,7.31,4.62,8.04C5.3,8.5,6.12,8.56,6.83,8.28l1.43,1.2
			C8.32,9.36,8.39,9.24,8.47,9.13z M9.98,14.87l-0.76,2.84c-0.44,0.1-0.84,0.36-1.12,0.76c-0.57,0.84-0.35,1.99,0.49,2.56
			c0.84,0.57,1.99,0.35,2.56-0.49c0.55-0.81,0.36-1.88-0.39-2.48l0.74-2.78C10.97,15.24,10.46,15.11,9.98,14.87z M16.26,10.25
			l-1.81,0.12c-0.2-0.56-0.56-1.07-1.09-1.42c-0.5-0.34-1.06-0.5-1.62-0.5c-0.93,0-1.84,0.45-2.4,1.27
			c-0.9,1.32-0.55,3.12,0.77,4.02c0.5,0.34,1.06,0.5,1.62,0.5c0.93,0,1.84-0.45,2.4-1.27c0.22-0.32,0.36-0.67,0.43-1.02l1.8-0.12
			C16.21,11.32,16.17,10.78,16.26,10.25z" />
			<path fill="currentColor" d="M5.7,12.01c-1.08-0.73-2.56-0.45-3.29,0.63c-0.73,1.08-0.45,2.56,0.63,3.29c1.08,0.73,2.56,0.45,3.29-0.63
			C7.06,14.22,6.78,12.75,5.7,12.01z M20.96,8.85c-0.41-0.28-0.87-0.41-1.33-0.41c-0.76,0-1.51,0.36-1.96,1.04
			c-0.73,1.08-0.45,2.56,0.63,3.29c0.41,0.28,0.87,0.41,1.33,0.41c0.76,0,1.51-0.36,1.96-1.04C22.33,11.06,22.04,9.59,20.96,8.85z"
			 />
		</g>
	</g>
</svg>
