<?xml version="1.0" encoding="utf-8"?>
<!-- Generator: Adobe Illustrator 27.0.0, SVG Export Plug-In . SVG Version: 6.00 Build 0)  -->
<svg version="1.1" xmlns="http://www.w3.org/2000/svg" xmlns:xlink="http://www.w3.org/1999/xlink" x="0px" y="0px"
	viewBox="0 0 24 24" style="enable-background:new 0 0 24 24;" xml:space="preserve">
	<g>
		<g>
			<path fill="currentColor" d="M12.4,15.74c0.12,0,0.24-0.03,0.36-0.08l3.01-1.48c0.28-0.14,0.45-0.42,0.45-0.72V9.81
			c0-0.45-0.36-0.81-0.81-0.81c-0.45,0-0.81,0.36-0.81,0.81v3.14l-2.56,1.26c-0.4,0.2-0.56,0.68-0.37,1.08
			C11.81,15.58,12.1,15.74,12.4,15.74z M21.16,5.81c-0.31-0.51-0.97-0.67-1.48-0.36l-1,0.61l-2.47-1.42
			c-0.51-0.3-1.17-0.12-1.47,0.39c-0.3,0.51-0.12,1.17,0.39,1.47l2.56,1.48v6.82l-5.59,2.76c-0.03,0-0.05-0.01-0.08-0.01l-4.14-2.67
			c0-0.02,0.01-0.04,0.01-0.06c0-1.13-0.92-2.05-2.05-2.05c-1.13,0-2.04,0.92-2.04,2.05c0,1.13,0.92,2.04,2.04,2.04
			c0.31,0,0.59-0.07,0.85-0.19l4.22,2.72v1.53c0,0.59,0.48,1.08,1.08,1.08c0.59,0,1.08-0.48,1.08-1.08v-1.45l6.17-3.04
			c0.37-0.18,0.6-0.56,0.6-0.97v-7.6l0.95-0.58C21.31,6.98,21.47,6.31,21.16,5.81z" />
			<path fill="currentColor" d="M12,2c-1.06,0-1.93,0.82-2.03,1.86L5.21,6.05L4.3,5.53c-0.51-0.3-1.17-0.12-1.47,0.39
			c-0.3,0.52-0.12,1.17,0.39,1.47l0.84,0.48L4,10.81c-0.01,0.6,0.46,1.09,1.05,1.1c0.01,0,0.02,0,0.02,0c0.58,0,1.06-0.47,1.08-1.05
			l0.06-2.9l4.72-2.17c0.31,0.19,0.67,0.31,1.06,0.31c1.13,0,2.04-0.92,2.04-2.04C14.05,2.92,13.13,2,12,2z" />
		</g>
	</g>
</svg>